<svg xmlns="http://www.w3.org/2000/svg" viewBox="0 0 100 100">
  <defs>
    <linearGradient id="g" x1="0" y1="0" x2="1" y2="1">
      <stop offset="0%" stop-color="#10b981" />
      <stop offset="100%" stop-color="#f59e0b" />
    </linearGradient>
  </defs>
  <rect width="100" height="100" rx="24" fill="#07110d" />
  <path d="M50 20C40 28 30 36 30 50C30 66 42 80 50 90C58 80 70 66 70 50C70 36 60 28 50 20Z" fill="url(#g)" />
  <path d="M44 38C40 44 38 50 38 56C38 64 44 72 50 78C56 72 62 64 62 56C62 50 60 44 56 38C52 32 46 32 44 38Z" fill="#07110d" />
</svg>
